<?xml version="1.0" encoding="UTF-8"?><svg id="Layer_1" xmlns="http://www.w3.org/2000/svg" viewBox="0 0 59.37 59.37"><defs><style>.cls-1{fill:#333;}.cls-1,.cls-2{stroke-width:0px;}.cls-2{fill:#fff;}</style></defs><rect class="cls-1" x="1" y="1" width="57.37" height="57.37" rx="10.44" ry="10.44"/><path class="cls-2" d="m47.93,2c5.21,0,9.44,4.23,9.44,9.44v36.49c0,5.21-4.23,9.44-9.44,9.44H11.44c-5.21,0-9.44-4.23-9.44-9.44V11.44C2,6.23,6.23,2,11.44,2h36.49m0-2H11.44C5.13,0,0,5.13,0,11.44v36.49c0,6.31,5.13,11.44,11.44,11.44h36.49c6.31,0,11.44-5.13,11.44-11.44V11.44c0-6.31-5.13-11.44-11.44-11.44h0Z"/><rect class="cls-2" x="7.69" y="7.12" width="38.15" height="38.15" rx="5.58" ry="5.58"/></svg>