<?xml version="1.0" encoding="UTF-8"?><svg id="Layer_1" xmlns="http://www.w3.org/2000/svg" viewBox="0 0 1203.37 1849.51"><defs><style>.cls-1{fill:#fff;stroke-width:0px;}</style></defs><path class="cls-1" d="m2.06,1211.57c0-153.53.16-307.05-.04-460.58-.22-163.56-.75-327.11-1.22-490.66-.12-40.77-.61-81.53-.76-122.3-.03-8.77-.33-17.73,1.24-26.27,4.03-21.86,15.97-38.46,37.48-45.5,13.76-4.51,28.42-6.37,42.77-8.91,21.32-3.78,42.72-7.14,64.1-10.61,20.57-3.34,41.16-6.51,61.73-9.88,23.44-3.84,46.83-8.05,70.31-11.67,46.39-7.15,92.91-13.48,139.21-21.15,31.64-5.25,63.15-4.69,94.87-2.17,26.23,2.08,52.53,3.36,78.78,5.31,22.9,1.7,45.76,4.02,68.66,5.72,23.11,1.72,46.28,2.77,69.39,4.55,25.79,1.99,51.54,4.58,77.32,6.69,14.78,1.21,29.61,1.84,44.39,2.98,24.34,1.88,48.66,3.99,73,5.95,6.45.52,12.92.76,19.37,1.27,21.82,1.73,43.65,3.43,65.45,5.32,20.78,1.8,41.53,3.86,62.3,5.73,17.25,1.56,34.52,2.87,51.76,4.57,13.66,1.35,27.27,2.56,40.29,7.96,22.29,9.26,38.74,32.62,38.74,56.67,0,38.9.05,77.81-.21,116.71-.04,5.96-1.34,11.98-2.63,17.84-1.66,7.53-7.46,10.95-14.47,11.97-4.31.63-5.66,2.62-5.71,6.56-.13,8.99-.62,17.97-.63,26.95-.15,238.45-.24,476.89-.5,715.33,0,6.61.82,9.68,8.72,10.64,14.08,1.72,18.12,8.78,17.54,23.09-.7,17.11-.75,34.25-.75,51.38-.06,205.61-.06,411.21-.05,616.82,0,18.36-5.81,34.4-18.58,47.78-12.74,13.35-28.6,19.81-46.74,21.42-25.99,2.3-51.96,4.73-77.94,7.1-24.74,2.26-49.49,4.37-74.21,6.8-22.23,2.19-44.43,4.81-66.65,7.07-18.7,1.9-37.42,3.48-56.12,5.34-23.05,2.29-46.09,4.73-69.14,7.08-17.43,1.78-34.88,3.5-52.31,5.3-23.04,2.38-46.07,4.89-69.12,7.21-27.4,2.77-54.82,5.3-82.22,8.12-17.21,1.77-34.38,3.98-51.59,5.79-21.59,2.28-43.17,4.6-64.8,6.46-13.29,1.14-26.79,3-39.94,1.75-15.45-1.47-30.76-5.38-45.87-9.25-21.01-5.39-41.76-11.83-62.66-17.64-33.59-9.35-67.21-18.6-100.84-27.81-37.62-10.31-75.24-20.64-112.91-30.77-18.31-4.93-36.75-9.35-55.1-14.13-18.92-4.94-35.77-12.95-45.25-31.51-6.04-11.84-7.92-24.66-7.93-37.66-.11-156.24-.07-312.49-.07-468.73h-.46Z"/></svg>